<?xml version="1.0" standalone="no"?>
<!DOCTYPE svg PUBLIC "-//W3C//DTD SVG 20010904//EN"
 "http://www.w3.org/TR/2001/REC-SVG-20010904/DTD/svg10.dtd">
<svg version="1.0" xmlns="http://www.w3.org/2000/svg"
 width="225.000000pt" height="225.000000pt" viewBox="0 0 225.000000 225.000000"
 preserveAspectRatio="xMidYMid meet">
<metadata>
Created by potrace 1.14, written by Peter Selinger 2001-2017
</metadata>
<g transform="translate(0.000000,225.000000) scale(0.100000,-0.100000)"
fill="#000000" stroke="none">
<path d="M975 2239 c-153 -19 -327 -84 -464 -173 -86 -55 -225 -186 -292 -276
-158 -210 -240 -510 -210 -779 28 -260 126 -472 303 -657 106 -110 189 -172
313 -234 446 -221 970 -127 1315 236 410 432 412 1106 3 1535 -257 271 -600
394 -968 348z m689 -629 c25 -9 26 -14 26 -80 l0 -70 -39 0 c-80 0 -111 -34
-111 -122 0 -28 0 -28 70 -28 l70 0 0 -70 0 -70 -67 0 -68 0 0 -242 0 -243
-87 -3 -88 -3 0 244 0 245 -22 6 c-13 3 -35 6 -50 6 -28 0 -28 1 -28 65 l0 65
49 0 48 0 7 72 c11 118 61 193 148 225 41 14 109 16 142 3z m-707 -84 c134
-36 213 -135 215 -269 2 -114 -53 -216 -141 -261 -47 -25 -150 -46 -223 -46
l-67 0 -3 -132 -3 -133 -85 0 -85 0 -3 428 -2 427 172 0 c116 0 190 -5 225
-14z"/>
<path d="M740 1244 l0 -137 78 5 c123 7 174 46 174 131 0 96 -55 137 -182 137
l-70 0 0 -136z"/>
</g>
</svg>
